<svg width="431" height="429" viewBox="0 0 431 429" fill="none" xmlns="http://www.w3.org/2000/svg">
<circle cx="171.889" cy="342.998" r="85.2108" transform="rotate(90 171.889 342.998)" fill="#F23F5D" fill-opacity="0.1"/>
<circle cx="344.986" cy="170.259" r="85.6854" transform="rotate(90 344.986 170.259)" fill="#F23F5D" fill-opacity="0.1"/>
<path opacity="0.1" d="M86.6782 -1.11216C86.6782 10.1402 88.8945 21.2824 93.2006 31.6782C97.5067 42.0741 103.818 51.5199 111.775 59.4766C119.732 67.4332 129.177 73.7447 139.573 78.0508C149.969 82.3569 161.111 84.5732 172.364 84.5732C183.616 84.5732 194.758 82.3569 205.154 78.0508C215.55 73.7447 224.996 67.4332 232.952 59.4766C240.909 51.5199 247.221 42.074 251.527 31.6782C255.833 21.2824 258.049 10.1402 258.049 -1.11219L172.364 -1.11216L86.6782 -1.11216Z" fill="#F23F5D"/>
<path opacity="0.1" d="M0.579971 256.095C11.8763 256.095 23.0619 253.87 33.4984 249.547C43.9348 245.224 53.4175 238.888 61.4052 230.9C69.3929 222.912 75.7291 213.43 80.052 202.993C84.3749 192.557 86.5998 181.371 86.5998 170.075C86.5998 158.779 84.3749 147.593 80.052 137.156C75.7291 126.72 69.3929 117.237 61.4052 109.25C53.4175 101.262 43.9347 94.9258 33.4983 90.6028C23.0619 86.28 11.8762 84.055 0.579933 84.055L0.579964 170.075L0.579971 256.095Z" fill="#F23F5D"/>
<rect opacity="0.2" x="258.665" y="84.1091" width="171.982" height="171.984" transform="rotate(90 258.665 84.1091)" fill="#F23F5D"/>
<path d="M430.646 256.092L339.024 345.207L258.664 428.074L258.664 256.092L430.646 256.092Z" fill="#F23F5D" fill-opacity="0.15"/>
<path d="M258.665 84.1091L350.287 -5.00606L430.647 -87.873L430.647 84.1091L258.665 84.1091Z" fill="#F23F5D" fill-opacity="0.15"/>
</svg>
